<svg id="visual" viewBox="0 0 900 450" width="900" height="450" xmlns="http://www.w3.org/2000/svg" xmlns:xlink="http://www.w3.org/1999/xlink" version="1.1"><rect x="0" y="0" width="900" height="450" fill="#001220"></rect><path d="M0 146L21.5 148.8C43 151.7 86 157.3 128.8 154.2C171.7 151 214.3 139 257.2 132.8C300 126.7 343 126.3 385.8 135.8C428.7 145.3 471.3 164.7 514.2 169.7C557 174.7 600 165.3 642.8 157C685.7 148.7 728.3 141.3 771.2 139.2C814 137 857 140 878.5 141.5L900 143L900 0L878.5 0C857 0 814 0 771.2 0C728.3 0 685.7 0 642.8 0C600 0 557 0 514.2 0C471.3 0 428.7 0 385.8 0C343 0 300 0 257.2 0C214.3 0 171.7 0 128.8 0C86 0 43 0 21.5 0L0 0Z" fill="#312e45"></path><path d="M0 157L21.5 149C43 141 86 125 128.8 115.5C171.7 106 214.3 103 257.2 107.8C300 112.7 343 125.3 385.8 130.8C428.7 136.3 471.3 134.7 514.2 134.8C557 135 600 137 642.8 137.8C685.7 138.7 728.3 138.3 771.2 134.8C814 131.3 857 124.7 878.5 121.3L900 118L900 0L878.5 0C857 0 814 0 771.2 0C728.3 0 685.7 0 642.8 0C600 0 557 0 514.2 0C471.3 0 428.7 0 385.8 0C343 0 300 0 257.2 0C214.3 0 171.7 0 128.8 0C86 0 43 0 21.5 0L0 0Z" fill="#363955"></path><path d="M0 110L21.5 110.2C43 110.3 86 110.7 128.8 109.2C171.7 107.7 214.3 104.3 257.2 104.5C300 104.7 343 108.3 385.8 113C428.7 117.7 471.3 123.3 514.2 117.8C557 112.3 600 95.7 642.8 91.7C685.7 87.7 728.3 96.3 771.2 101.3C814 106.3 857 107.7 878.5 108.3L900 109L900 0L878.5 0C857 0 814 0 771.2 0C728.3 0 685.7 0 642.8 0C600 0 557 0 514.2 0C471.3 0 428.7 0 385.8 0C343 0 300 0 257.2 0C214.3 0 171.7 0 128.8 0C86 0 43 0 21.5 0L0 0Z" fill="#394465"></path><path d="M0 67L21.5 68.5C43 70 86 73 128.8 71.8C171.7 70.7 214.3 65.3 257.2 67.7C300 70 343 80 385.8 82.7C428.7 85.3 471.3 80.7 514.2 78.8C557 77 600 78 642.8 80.7C685.7 83.3 728.3 87.7 771.2 87.3C814 87 857 82 878.5 79.5L900 77L900 0L878.5 0C857 0 814 0 771.2 0C728.3 0 685.7 0 642.8 0C600 0 557 0 514.2 0C471.3 0 428.7 0 385.8 0C343 0 300 0 257.2 0C214.3 0 171.7 0 128.8 0C86 0 43 0 21.5 0L0 0Z" fill="#3a5075"></path><path d="M0 46L21.5 46C43 46 86 46 128.8 49.8C171.7 53.7 214.3 61.3 257.2 60.2C300 59 343 49 385.8 48.2C428.7 47.3 471.3 55.7 514.2 59.8C557 64 600 64 642.8 61.7C685.7 59.3 728.3 54.7 771.2 51.7C814 48.7 857 47.3 878.5 46.7L900 46L900 0L878.5 0C857 0 814 0 771.2 0C728.3 0 685.7 0 642.8 0C600 0 557 0 514.2 0C471.3 0 428.7 0 385.8 0C343 0 300 0 257.2 0C214.3 0 171.7 0 128.8 0C86 0 43 0 21.5 0L0 0Z" fill="#375c85"></path><path d="M0 24L21.5 27C43 30 86 36 128.8 36.5C171.7 37 214.3 32 257.2 27.5C300 23 343 19 385.8 19.2C428.7 19.3 471.3 23.7 514.2 26.8C557 30 600 32 642.8 32.8C685.7 33.7 728.3 33.3 771.2 31.8C814 30.3 857 27.7 878.5 26.3L900 25L900 0L878.5 0C857 0 814 0 771.2 0C728.3 0 685.7 0 642.8 0C600 0 557 0 514.2 0C471.3 0 428.7 0 385.8 0C343 0 300 0 257.2 0C214.3 0 171.7 0 128.8 0C86 0 43 0 21.5 0L0 0Z" fill="#316995"></path></svg>